Coordinates
version=1
nRows=37
nColumns=38
inDegrees=no

Units are S.I. units (second, meters, Newtons, ...)
If the header above contains a line with 'inDegrees', this indicates whether rotational values are in degrees (yes) or radians (no).

endheader
time	pelvis_tilt	pelvis_list	pelvis_rotation	pelvis_tx	pelvis_ty	pelvis_tz	hip_flexion_r	hip_adduction_r	hip_rotation_r	knee_angle_r	ankle_angle_r	subtalar_angle_r	mtp_angle_r	hip_flexion_l	hip_adduction_l	hip_rotation_l	knee_angle_l	ankle_angle_l	subtalar_angle_l	mtp_angle_l	lumbar_extension	lumbar_bending	lumbar_rotation	arm_flex_r	arm_add_r	arm_rot_r	elbow_flex_r	pro_sup_r	wrist_flex_r	wrist_dev_r	arm_flex_l	arm_add_l	arm_rot_l	elbow_flex_l	pro_sup_l	wrist_flex_l	wrist_dev_l
0	2.16979	1.51605	-0.438685	0.505729	-0.837881	0.925681	0.163089	0.110204	-0.259966	0.292291	0.123601	0	0	0.235624	-0.221462	-0.0722277	1.25838	0.0338719	0	0	-0.159554	0.0389504	-0.146058	-0.200254	-0.260671	-0.0641171	0.729628	0.569068	0	0	-0.0834813	-0.325556	0.0952642	0.656768	1.38655	0	0
0.01	2.18248	1.52195	-0.458325	0.506678	-0.829075	0.926839	0.150945	0.10914	-0.248632	0.284429	0.12592	0	0	0.264929	-0.214538	-0.0675379	1.26862	0.0435451	0	0	-0.157238	0.0304425	-0.138198	-0.202845	-0.259778	-0.0626993	0.729231	0.563644	0	0	-0.0879461	-0.327088	0.0984608	0.655636	1.38571	0	0
0.02	2.21731	1.52545	-0.498215	0.507417	-0.820072	0.928399	0.136366	0.108776	-0.241388	0.277041	0.117293	0	0	0.290828	-0.209014	-0.0625054	1.27234	0.0546884	0	0	-0.15714	0.0242979	-0.132346	-0.206061	-0.258318	-0.0636444	0.729365	0.561519	0	0	-0.0921825	-0.327705	0.0998646	0.653389	1.38365	0	0
0.03	2.27887	1.53152	-0.564273	0.508097	-0.810978	0.929734	0.120663	0.106121	-0.234556	0.265782	0.119894	0	0	0.315771	-0.200276	-0.0592891	1.27026	0.0675127	0	0	-0.156026	0.0152069	-0.127542	-0.210411	-0.256546	-0.0641913	0.730401	0.560133	0	0	-0.097956	-0.329442	0.100945	0.653392	1.3795	0	0
0.04	2.38594	1.53736	-0.675742	0.508715	-0.801889	0.931111	0.104527	0.10263	-0.228202	0.254666	0.12146	0	0	0.338439	-0.190649	-0.0570828	1.26254	0.0821828	0	0	-0.155673	0.00574665	-0.122809	-0.214031	-0.254726	-0.0647307	0.729926	0.559141	0	0	-0.103708	-0.331515	0.103172	0.653867	1.3712	0	0
0.05	2.55683	1.54229	-0.851146	0.509287	-0.792813	0.93246	0.0874699	0.0986541	-0.22242	0.243042	0.123541	0	0	0.359115	-0.180783	-0.0567281	1.2495	0.0951817	0	0	-0.156242	-0.0037311	-0.11849	-0.217199	-0.25314	-0.0654503	0.729804	0.558184	0	0	-0.109423	-0.332439	0.099841	0.653958	1.37665	0	0
0.06	2.82148	1.54537	-1.1225	0.509902	-0.783908	0.933767	0.0690636	0.0941187	-0.212803	0.230466	0.125429	0	0	0.376606	-0.170994	-0.0599046	1.23086	0.106405	0	0	-0.158416	-0.0134477	-0.112186	-0.219568	-0.252104	-0.0668686	0.730645	0.556949	0	0	-0.113929	-0.332721	0.0964729	0.654003	1.38115	0	0
0.07	3.10737	1.54535	-1.41518	0.510468	-0.774935	0.934978	0.0492354	0.0901148	-0.203736	0.216913	0.126369	0	0	0.391495	-0.16227	-0.0646428	1.20758	0.116824	0	0	-0.161166	-0.0223128	-0.105639	-0.222011	-0.251365	-0.0693165	0.732346	0.555884	0	0	-0.118084	-0.332641	0.0928748	0.653901	1.38464	0	0
0.08	-2.94234	1.54281	-1.65671	0.511103	-0.766027	0.93603	0.0287528	0.086868	-0.193235	0.203036	0.127399	0	0	0.404077	-0.155473	-0.0728552	1.18048	0.126591	0	0	-0.164852	-0.0302494	-0.0982198	-0.224055	-0.251376	-0.0718216	0.735783	0.55556	0	0	-0.12345	-0.33271	0.0885468	0.656346	1.38734	0	0
0.09	-2.79272	1.53904	-1.81385	0.511686	-0.757065	0.93689	0.00764677	0.0846994	-0.182436	0.188658	0.128652	0	0	0.415291	-0.150542	-0.0832556	1.15025	0.137036	0	0	-0.168813	-0.0367818	-0.0918126	-0.225596	-0.251678	-0.0744933	0.739919	0.55581	0	0	-0.129316	-0.332545	0.0837474	0.658963	1.38997	0	0
0.1	-2.68806	1.53454	-1.92693	0.512269	-0.748214	0.937545	-0.0133961	0.0823809	-0.170693	0.174744	0.130316	0	0	0.425	-0.147234	-0.09773	1.11731	0.146918	0	0	-0.173308	-0.0427959	-0.084931	-0.226541	-0.252681	-0.0766733	0.745409	0.556487	0	0	-0.134675	-0.331999	0.0790817	0.661557	1.39162	0	0
0.11	-2.6574	1.52904	-1.96731	0.513033	-0.738977	0.938026	-0.0376053	0.0818598	-0.156686	0.158542	0.131348	0	0	0.431483	-0.157825	-0.133613	1.08387	0.155816	0	0	-0.178431	-0.0472939	-0.0770291	-0.228324	-0.254276	-0.0785398	0.753126	0.557151	0	0	-0.141264	-0.331223	0.0732496	0.665353	1.39209	0	0
0.12	-2.59114	1.52588	-2.03949	0.513446	-0.730121	0.938139	-0.0561535	0.0795337	-0.149734	0.146382	0.134558	0	0	0.439996	-0.153412	-0.147701	1.04456	0.163194	0	0	-0.180765	-0.0523604	-0.0732415	-0.227993	-0.255036	-0.0797995	0.758113	0.55752	0	0	-0.146791	-0.331007	0.0686784	0.667261	1.39173	0	0
0.13	-2.5438	1.52127	-2.09349	0.513943	-0.721316	0.938224	-0.0766415	0.0768649	-0.139901	0.132853	0.137436	0	0	0.444507	-0.148779	-0.164189	1.00048	0.168276	0	0	-0.184901	-0.0578095	-0.0687832	-0.226816	-0.255293	-0.0819198	0.76351	0.558805	0	0	-0.151832	-0.332954	0.0739705	0.671505	1.35217	0	0
0.14	-2.5095	1.51836	-2.13368	0.514276	-0.712667	0.937962	-0.09353	0.0747173	-0.134868	0.123452	0.142922	0	0	0.449903	-0.144358	-0.179943	0.954559	0.173073	0	0	-0.188099	-0.061689	-0.0654852	-0.224436	-0.256126	-0.0828316	0.768388	0.560383	0	0	-0.155945	-0.33162	0.0657858	0.672024	1.36281	0	0
0.15	-2.48057	1.51495	-2.16923	0.514586	-0.704086	0.937589	-0.11057	0.0719023	-0.128543	0.114575	0.14842	0	0	0.452579	-0.139354	-0.197372	0.904407	0.177942	0	0	-0.192025	-0.0657536	-0.0615476	-0.221845	-0.257001	-0.0843152	0.774207	0.562289	0	0	-0.15915	-0.329968	0.0578471	0.672028	1.36912	0	0
0.16	-2.4556	1.51175	-2.20158	0.514875	-0.69559	0.937021	-0.126459	0.0686693	-0.122332	0.107366	0.15433	0	0	0.45364	-0.134063	-0.216209	0.850491	0.18221	0	0	-0.195853	-0.0696892	-0.0566264	-0.219008	-0.257894	-0.0862459	0.7803	0.56405	0	0	-0.161574	-0.328451	0.0518914	0.671676	1.37332	0	0
0.17	-2.42857	1.51013	-2.23438	0.514985	-0.68715	0.936118	-0.140098	0.0660927	-0.11827	0.101569	0.161601	0	0	0.455653	-0.128214	-0.23401	0.794102	0.183988	0	0	-0.198204	-0.0726239	-0.052975	-0.216178	-0.25851	-0.0885832	0.786483	0.565915	0	0	-0.163638	-0.327037	0.0468745	0.671563	1.37585	0	0
0.18	-2.40131	1.51046	-2.26558	0.514878	-0.678616	0.934862	-0.151713	0.0647766	-0.11501	0.0967114	0.169771	0	0	0.458847	-0.122216	-0.250533	0.736279	0.184386	0	0	-0.198776	-0.0739956	-0.0507322	-0.213805	-0.259128	-0.0908362	0.792477	0.567959	0	0	-0.165916	-0.325522	0.042345	0.67127	1.37731	0	0
0.19	-2.374	1.51175	-2.29523	0.514533	-0.669927	0.93334	-0.162618	0.0641215	-0.112633	0.092515	0.178843	0	0	0.462078	-0.115302	-0.266219	0.676864	0.184812	0	0	-0.19836	-0.0743704	-0.0498815	-0.211772	-0.259587	-0.0934813	0.798022	0.569757	0	0	-0.168238	-0.323824	0.0382721	0.67025	1.37898	0	0
0.2	-2.33938	1.5122	-2.33238	0.514039	-0.661318	0.931743	-0.172964	0.0619852	-0.110241	0.0902908	0.189559	0	0	0.462771	-0.105755	-0.281521	0.613105	0.183582	0	0	-0.198723	-0.0754729	-0.0493269	-0.208955	-0.260215	-0.0955023	0.8035	0.571606	0	0	-0.169857	-0.321686	0.0337732	0.668925	1.38164	0	0
0.21	-2.29368	1.51348	-2.38013	0.513416	-0.652681	0.929914	-0.181304	0.0598118	-0.109499	0.0895136	0.201004	0	0	0.463507	-0.0948114	-0.294533	0.54854	0.183769	0	0	-0.197779	-0.0762312	-0.0492073	-0.20598	-0.260901	-0.0973177	0.808252	0.577136	0	0	-0.171473	-0.320399	0.0344886	0.66811	1.36569	0	0
0.22	-2.1801	1.50722	-2.4927	0.512302	-0.64441	0.928822	-0.189964	0.0480454	-0.115847	0.0914964	0.214459	0	0	0.442511	-0.0575488	-0.268168	0.437276	0.166711	0	0	-0.200591	-0.0858346	-0.0543897	-0.198542	-0.258543	-0.100069	0.806254	0.58566	0	0	-0.170365	-0.317346	0.0197671	0.662589	1.40247	0	0
0.23	-2.11492	1.50686	-2.5579	0.511313	-0.635595	0.926925	-0.198056	0.0437527	-0.118963	0.0915943	0.227078	0	0	0.43155	-0.0359647	-0.253555	0.349586	0.158064	0	0	-0.199227	-0.088403	-0.0564314	-0.195793	-0.259121	-0.100205	0.809594	0.587243	0	0	-0.171109	-0.31529	0.0156256	0.65948	1.40641	0	0
0.24	-2.112	1.51154	-2.56133	0.510433	-0.626153	0.92441	-0.208527	0.0470372	-0.120387	0.089244	0.237623	0	0	0.440546	-0.0362314	-0.279814	0.314532	0.171247	0	0	-0.196398	-0.083977	-0.0565225	-0.195582	-0.261792	-0.099395	0.81516	0.58889	0	0	-0.174134	-0.31278	0.012892	0.658512	1.40841	0	0
0.25	-2.07236	1.50186	-2.60439	0.50966	-0.616716	0.923469	-0.223832	0.0342047	-0.123172	0.0892347	0.248625	0	0	0.378525	0.00971014	-0.18033	0.136523	0.108794	0	0	-0.200829	-0.0951122	-0.0565045	-0.190885	-0.260543	-0.0985677	0.813148	0.590731	0	0	-0.174032	-0.312019	0.0103224	0.653591	1.41052	0	0
0.26	-2.06996	1.50407	-2.60977	0.509075	-0.606694	0.921183	-0.235148	0.0345983	-0.123999	0.0890944	0.25839	0	0	0.354041	0.02121	-0.138782	0.0406957	0.0799279	0	0	-0.198508	-0.0937583	-0.054575	-0.190883	-0.262073	-0.0977458	0.81615	0.591581	0	0	-0.17622	-0.309639	0.00783549	0.649241	1.41226	0	0
0.27	-2.05595	1.50999	-2.62566	0.508621	-0.596704	0.918454	-0.24364	0.0389382	-0.123797	0.0891941	0.267421	0	0	0.34629	0.0249195	-0.124168	0	0.0678613	0	0	-0.193588	-0.0896272	-0.0531488	-0.191318	-0.263385	-0.0972352	0.818887	0.590041	0	0	-0.178841	-0.307917	0.00676613	0.645828	1.41078	0	0
0.28	-2.00691	1.51067	-2.67299	0.508293	-0.587748	0.915309	-0.252511	0.0409157	-0.126265	0.0927581	0.29175	0	0	0.37018	0.0311552	-0.131129	0	0.0686869	0	0	-0.191437	-0.0920492	-0.0546016	-0.192067	-0.263308	-0.0967614	0.822046	0.594924	0	0	-0.181073	-0.308817	0.0048824	0.645397	1.41263	0	0
0.29	-2.08198	1.51356	-2.59877	0.507669	-0.577627	0.913312	-0.262143	0.0447261	-0.128101	0.100871	0.299279	0	0	0.376646	0.031658	-0.139435	0	0.0704706	0	0	-0.194378	-0.0881392	-0.0536428	-0.190797	-0.264271	-0.0961144	0.821832	0.596513	0	0	-0.181901	-0.307463	0.00400291	0.641644	1.41087	0	0
0.3	-2.1212	1.51366	-2.5615	0.507334	-0.567438	0.911253	-0.273943	0.0448366	-0.129648	0.107231	0.308007	0	0	0.380842	0.0356177	-0.14904	0	0.0735145	0	0	-0.196322	-0.0883629	-0.0520673	-0.190122	-0.264239	-0.0955034	0.82132	0.597121	0	0	-0.183339	-0.307314	0.00401938	0.63869	1.40748	0	0
0.31	-2.10515	1.51524	-2.57949	0.506902	-0.556956	0.908975	-0.278909	0.0436288	-0.136524	0.120306	0.320602	0	0	0.38656	0.0402151	-0.15726	0	0.0753583	0	0	-0.194142	-0.0889221	-0.0504658	-0.189527	-0.264563	-0.0923723	0.820342	0.595967	0	0	-0.18421	-0.305755	-0.000622834	0.633089	1.4176	0	0
0.32	-2.07563	1.51472	-2.61184	0.506853	-0.546543	0.906854	-0.290886	0.04116	-0.134999	0.123182	0.327566	0	0	0.388976	0.0465455	-0.162753	0	0.0769187	0	0	-0.192832	-0.0923887	-0.0481624	-0.188983	-0.263311	-0.091225	0.819406	0.597566	0	0	-0.185796	-0.306667	0.000526773	0.630485	1.41244	0	0
0.33	-2.12157	1.51464	-2.57115	0.506502	-0.535172	0.905347	-0.297007	0.0385306	-0.137392	0.139601	0.333602	0	0	0.384612	0.0491744	-0.163682	0	0.0767043	0	0	-0.194272	-0.092776	-0.0431182	-0.187947	-0.263135	-0.0892984	0.817067	0.597239	0	0	-0.186247	-0.304997	-0.00104069	0.623839	1.41321	0	0
0.34	-2.1264	1.51392	-2.57249	0.506444	-0.523866	0.903725	-0.304171	0.0342709	-0.141104	0.154166	0.340942	0	0	0.379841	0.0531822	-0.163508	0	0.0767827	0	0	-0.19416	-0.0954291	-0.0366206	-0.188143	-0.262152	-0.0883973	0.815121	0.596656	0	0	-0.186857	-0.304337	-0.00224499	0.619375	1.41387	0	0
0.35	-2.13143	1.51295	-2.57497	0.506487	-0.512216	0.902267	-0.310747	0.0288275	-0.14547	0.170399	0.347411	0	0	0.372267	0.0569159	-0.160116	0	0.077763	0	0	-0.193665	-0.0985189	-0.0282691	-0.18891	-0.260659	-0.0883287	0.812768	0.595948	0	0	-0.187577	-0.303789	-0.00289529	0.617493	1.41335	0	0
0.36	-2.12644	1.51322	-2.59096	0.506666	-0.499989	0.900959	-0.316846	0.0185421	-0.156468	0.186596	0.356265	0	0	0.35812	0.0599616	-0.152882	0	0.0799101	0	0	-0.190844	-0.101019	-0.0172943	-0.189696	-0.258843	-0.0886241	0.809725	0.59511	0	0	-0.189531	-0.302737	-0.00269417	0.614509	1.41287	0	0
